<svg xmlns="http://www.w3.org/2000/svg" viewBox="0 0 880 540" font-family="-apple-system,Segoe UI,Inter,Helvetica,sans-serif">
  <defs>
    <linearGradient id="bg" x1="0" y1="0" x2="0" y2="1">
      <stop offset="0%" stop-color="#0b0f1a"/>
      <stop offset="100%" stop-color="#121826"/>
    </linearGradient>
    <linearGradient id="accent" x1="0" y1="0" x2="1" y2="0">
      <stop offset="0%" stop-color="#ff7a2a"/>
      <stop offset="100%" stop-color="#22d3ee"/>
    </linearGradient>
  </defs>
  <rect width="880" height="540" fill="url(#bg)"/>
  <rect x="20" y="20" width="840" height="500" rx="14" fill="#0f1524" stroke="#1f2a3a"/>
  <text x="440" y="44" fill="#9aa6b8" font-size="12" text-anchor="middle">Crash Crafts Game Sync — Desktop GUI · Emulators tab</text>
  <rect x="36" y="62" width="808" height="36" rx="8" fill="#0d1422"/>
  <text x="88" y="85" fill="#9aa6b8" font-size="12" text-anchor="middle">Status</text>
  <rect x="142" y="66" width="100" height="28" rx="6" fill="url(#accent)"/>
  <text x="192" y="85" fill="#0b0f1a" font-size="12" font-weight="700" text-anchor="middle">Emulators</text>
  <text x="270" y="85" fill="#9aa6b8" font-size="12" text-anchor="middle">SRM</text>
  <text x="335" y="85" fill="#9aa6b8" font-size="12" text-anchor="middle">Folders</text>
  <text x="410" y="85" fill="#9aa6b8" font-size="12" text-anchor="middle">Activity</text>
  <text x="485" y="85" fill="#9aa6b8" font-size="12" text-anchor="middle">Settings</text>

  <!-- table header -->
  <rect x="36" y="110" width="808" height="32" fill="#101a2c"/>
  <text x="52" y="131" fill="#9aa6b8" font-size="11" font-weight="600">EMULATOR</text>
  <text x="220" y="131" fill="#9aa6b8" font-size="11" font-weight="600">INSTALLED</text>
  <text x="310" y="131" fill="#9aa6b8" font-size="11" font-weight="600">PORTABLE</text>
  <text x="400" y="131" fill="#9aa6b8" font-size="11" font-weight="600">SAVE FOLDERS</text>
  <text x="600" y="131" fill="#9aa6b8" font-size="11" font-weight="600">UPSTREAM</text>
  <text x="740" y="131" fill="#9aa6b8" font-size="11" font-weight="600">ACTION</text>

  <!-- Rows -->
  <g font-size="12" fill="#e5e7eb">
    <rect x="36" y="142" width="808" height="42" fill="#0f1524"/>
    <text x="52" y="168">DuckStation</text>
    <text x="220" y="168" fill="#22d3ee">yes</text>
    <text x="310" y="168" fill="#22d3ee">yes</text>
    <text x="400" y="168" fill="#9aa6b8" font-size="11">/games/emu/DuckStation/memcards</text>
    <text x="600" y="168" fill="#22d3ee">v0.1.7148 · 4d ago</text>
    <rect x="730" y="150" width="100" height="24" rx="4" fill="#1f2a3a"/>
    <text x="780" y="168" font-size="11" text-anchor="middle">Update</text>

    <rect x="36" y="184" width="808" height="42" fill="#101a2c"/>
    <text x="52" y="210">PCSX2 Nightly</text>
    <text x="220" y="210" fill="#22d3ee">yes</text>
    <text x="310" y="210" fill="#ff7a2a">no</text>
    <text x="400" y="210" fill="#9aa6b8" font-size="11">/games/emu/PCSX2/memcards</text>
    <text x="600" y="210" fill="#22d3ee">v2.4.0-rc · 1d ago</text>
    <rect x="730" y="192" width="100" height="24" rx="4" fill="url(#accent)"/>
    <text x="780" y="210" font-size="11" font-weight="700" text-anchor="middle" fill="#0b0f1a">Set portable</text>

    <rect x="36" y="226" width="808" height="42" fill="#0f1524"/>
    <text x="52" y="252">RPCS3 Nightly</text>
    <text x="220" y="252" fill="#22d3ee">yes</text>
    <text x="310" y="252" fill="#22d3ee">yes</text>
    <text x="400" y="252" fill="#9aa6b8" font-size="11">/games/emu/RPCS3/dev_hdd0/home</text>
    <text x="600" y="252" fill="#22d3ee">build-17328 · 12h ago</text>
    <rect x="730" y="234" width="100" height="24" rx="4" fill="#1f2a3a"/>
    <text x="780" y="252" font-size="11" text-anchor="middle">Update</text>

    <rect x="36" y="268" width="808" height="42" fill="#101a2c"/>
    <text x="52" y="294">Xenia Canary</text>
    <text x="220" y="294" fill="#9aa6b8">no</text>
    <text x="310" y="294" fill="#9aa6b8">—</text>
    <text x="400" y="294" fill="#9aa6b8" font-size="11">—</text>
    <text x="600" y="294" fill="#22d3ee">canary_experimental · 6h ago</text>
    <rect x="710" y="276" width="120" height="24" rx="4" fill="url(#accent)"/>
    <text x="770" y="294" font-size="11" font-weight="700" text-anchor="middle" fill="#0b0f1a">Install portable</text>

    <rect x="36" y="310" width="808" height="42" fill="#0f1524"/>
    <text x="52" y="336">xemu</text>
    <text x="220" y="336" fill="#22d3ee">yes</text>
    <text x="310" y="336" fill="#22d3ee">yes</text>
    <text x="400" y="336" fill="#9aa6b8" font-size="11">/games/emu/xemu/hdd, /saves, /eeprom.bin</text>
    <text x="600" y="336" fill="#22d3ee">v0.7.130 · 9h ago</text>
    <rect x="730" y="318" width="100" height="24" rx="4" fill="#1f2a3a"/>
    <text x="780" y="336" font-size="11" text-anchor="middle">Update</text>

    <rect x="36" y="352" width="808" height="42" fill="#101a2c"/>
    <text x="52" y="378">Cemu</text>
    <text x="220" y="378" fill="#22d3ee">yes</text>
    <text x="310" y="378" fill="#22d3ee">yes</text>
    <text x="400" y="378" fill="#9aa6b8" font-size="11">/games/emu/Cemu/mlc01/usr/save</text>
    <text x="600" y="378" fill="#22d3ee">v2.6 · 3d ago</text>
    <rect x="730" y="360" width="100" height="24" rx="4" fill="#1f2a3a"/>
    <text x="780" y="378" font-size="11" text-anchor="middle">Update</text>

    <rect x="36" y="394" width="808" height="42" fill="#0f1524"/>
    <text x="52" y="420">RetroArch</text>
    <text x="220" y="420" fill="#22d3ee">yes</text>
    <text x="310" y="420" fill="#22d3ee">yes</text>
    <text x="400" y="420" fill="#9aa6b8" font-size="11">/games/emu/RetroArch/saves, /states</text>
    <text x="600" y="420" fill="#22d3ee">v1.20.0 · 2w ago</text>
    <rect x="730" y="402" width="100" height="24" rx="4" fill="#1f2a3a"/>
    <text x="780" y="420" font-size="11" text-anchor="middle">Update</text>

    <rect x="36" y="436" width="808" height="42" fill="#101a2c"/>
    <text x="52" y="462">Eden Nightly</text>
    <text x="220" y="462" fill="#22d3ee">yes</text>
    <text x="310" y="462" fill="#22d3ee">yes</text>
    <text x="400" y="462" fill="#9aa6b8" font-size="11">/games/emu/Eden/user/nand/user/save</text>
    <text x="600" y="462" fill="#22d3ee">nightly-2026.04.27 · 3h ago</text>
    <rect x="730" y="444" width="100" height="24" rx="4" fill="#1f2a3a"/>
    <text x="780" y="462" font-size="11" text-anchor="middle">Update</text>

    <rect x="36" y="478" width="808" height="32" fill="#0f1524"/>
    <text x="52" y="498">Dolphin Dev Build</text>
    <text x="220" y="498" fill="#22d3ee">yes</text>
    <text x="310" y="498" fill="#22d3ee">yes</text>
    <text x="400" y="498" fill="#9aa6b8" font-size="11">/games/emu/Dolphin/User/GC, /User/Wii/title</text>
    <text x="600" y="498" fill="#22d3ee">5.0-22019 · 7h ago</text>
    <rect x="730" y="484" width="100" height="22" rx="4" fill="#1f2a3a"/>
    <text x="780" y="498" font-size="11" text-anchor="middle">Update</text>
  </g>
</svg>
